<?xml version="1.0" ?>
<svg viewBox="0 0 512 512"
  xmlns="http://www.w3.org/2000/svg">
  <title/>
  <g data-name="/ OUTLINE" id="_OUTLINE">
    <path d="M96,456V248a24.0275,24.0275,0,0,1,24-24H440a24.0275,24.0275,0,0,1,24,24v48h16V248a40.04521,40.04521,0,0,0-40-40V86.62744a23.843,23.843,0,0,0-7.02979-16.9707l-46.627-46.62695A23.843,23.843,0,0,0,369.37256,16H128a24.0275,24.0275,0,0,0-24,24v96H56a40.04521,40.04521,0,0,0-40,40V456a40.04521,40.04521,0,0,0,40,40H368V480H87.97815A39.79083,39.79083,0,0,0,96,456ZM376,35.31348,412.68652,72H384a8.00917,8.00917,0,0,1-8-8ZM376,192h32V176H376V152h32V136H376V86.6239A23.88475,23.88475,0,0,0,384,88h40V208H376ZM360,32V60.68652L331.31348,32Zm-48,3.31348L348.68652,72H320a8.00917,8.00917,0,0,1-8-8ZM120,40a8.00917,8.00917,0,0,1,8-8H296V64a24.02687,24.02687,0,0,0,24,24h40V208H120ZM80,456a24,24,0,0,1-48,0V176a24.0275,24.0275,0,0,1,24-24h48v59.34991A40.05181,40.05181,0,0,0,80,248Z"/>
    <path d="M463.99951,385.87451v-35.749l-24.27-5.81934-4.24658-10.24756,13.084-21.35107-25.27343-25.27441-21.35254,13.084-10.24707-4.24658L385.874,272H350.125l-5.81934,24.27-10.24755,4.24658-21.35108-13.084L287.43262,312.707l13.084,21.35156L296.27,344.30615l-24.27051,5.81934v35.749l24.27,5.81934,4.24658,10.24756-13.084,21.35107,25.27441,25.27441,21.35157-13.084,10.24755,4.24658L350.125,464h35.749l5.81934-24.27,10.24756-4.24658,21.35156,13.084L448.56689,423.293l-13.084-21.35156,4.24658-10.24756Zm-35.665,35.02393L420.898,428.335l-17.54981-10.75391-25.313,10.48877L373.25684,448H362.74219l-4.77832-19.92969-25.313-10.48974-17.54981,10.7539-7.43652-7.43652,10.75391-17.54932-10.48926-25.313-19.92969-4.77832V362.74268l19.92969-4.77832,10.48975-25.313L307.665,315.10156l7.43652-7.43652L332.65039,318.419l25.31348-10.48926L362.74219,288h10.51465l4.7788,19.93018,25.3125,10.48925,17.54981-10.7539,7.43652,7.43652-10.7539,17.54932,10.48925,25.313,19.92969,4.77832v10.51464l-19.92969,4.77832-10.48925,25.313Z"/>
    <path d="M368,328a40,40,0,1,0,40,40A40.04521,40.04521,0,0,0,368,328Zm0,64a24,24,0,1,1,24-24A24.0275,24.0275,0,0,1,368,392Z"/>
    <rect height="16" width="160" x="136" y="96"/>
    <rect height="16" width="208" x="136" y="136"/>
    <rect height="16" width="208" x="136" y="176"/>
    <path d="M323.20312,265.31592l-6.40624-14.66211a128.12772,128.12772,0,0,0-66.14307,168.54883l14.66211-6.40528a112.12661,112.12661,0,0,1,57.8872-147.48144Z"/>
    <path d="M353.05615,256.98779l-2.1123-15.86035a127.84568,127.84568,0,0,0-17.07276,3.4751l4.25782,15.42285A111.73415,111.73415,0,0,1,353.05615,256.98779Z"/>
    <path d="M485.3457,316.79688l-14.66211,6.40624a112.12475,112.12475,0,0,1-57.88671,147.481l6.40624,14.66211A128.127,128.127,0,0,0,485.3457,316.79688Z"/>
    <path d="M382.94287,479.01318l2.11426,15.85938a127.8623,127.8623,0,0,0,17.07178-3.4751l-4.25782-15.42285A111.88686,111.88686,0,0,1,382.94287,479.01318Z"/>
    <rect height="16" width="144" x="136" y="56"/>
  </g>
</svg>